<svg width="18" height="18" viewBox="0 0 18 18" fill="none" xmlns="http://www.w3.org/2000/svg">
<path d="M1.66599 9.63644C1.29817 5.56953 4.43453 1.98643 8.67126 1.63335C12.5511 1.31001 16.0083 3.8076 16.8457 7.35399" stroke="#059500" stroke-width="1.5" stroke-linecap="round"/>
<path d="M1.66597 9.63653C2.03379 13.7034 5.76652 16.7141 10.0032 16.361C13.1173 16.1015 15.6369 14.097 16.6075 11.4379" stroke="#004B27" stroke-width="1.5" stroke-linecap="round"/>
<path d="M8.31958 8.3244C8.22527 8.2505 8.12407 8.17446 8.01829 8.0997C7.75069 7.9106 7.42402 7.70832 7.08615 7.57795C6.77474 7.4578 6.29378 7.33617 5.82653 7.54387C5.16127 7.83957 4.84437 8.42739 4.81775 9.02522C4.79276 9.58652 5.01634 10.1473 5.37676 10.5627C5.62583 10.8498 6.06675 11.3545 6.59104 11.7829C7.08544 12.1868 7.8075 12.653 8.61032 12.6215C8.90619 12.6099 9.17252 12.4959 9.37663 12.3826C9.59078 12.2637 9.8013 12.1087 9.99819 11.9442C10.3923 11.615 10.7947 11.1945 11.1472 10.7954C11.5028 10.3926 11.8232 9.9935 12.0538 9.69653C12.1695 9.5476 12.2633 9.42332 12.3286 9.33575C12.3613 9.29195 12.3869 9.25727 12.4045 9.23323L12.4132 9.22144C12.4269 9.20535 12.4458 9.18295 12.4688 9.15491C12.5152 9.09857 12.5789 9.01883 12.6521 8.92127C12.7965 8.72874 12.9864 8.45495 13.1505 8.1469C13.3091 7.84928 13.474 7.46429 13.5151 7.05966C13.5587 6.63066 13.4633 6.11206 13.0137 5.72703C12.391 5.19371 11.7144 5.11985 11.1317 5.29786C10.6065 5.45832 10.2069 5.80562 9.98197 6.0312C9.83574 6.17789 9.62424 6.45857 9.42401 6.73429C9.20882 7.03059 8.96148 7.38507 8.72898 7.72346C8.58398 7.9345 8.44382 8.14062 8.31958 8.3244Z" stroke="#059500" stroke-width="1.5" stroke-linecap="round" stroke-linejoin="round"/>
</svg>
